<svg width="19" height="18" viewBox="0 0 19 18" fill="none" xmlns="http://www.w3.org/2000/svg">
<g clip-path="url(#clip0_279_1338)">
<path d="M14.9282 6.07124C15.115 6.27756 15.2185 6.54594 15.2185 6.82424C15.2185 7.10255 15.115 7.37092 14.9282 7.57724L10.1305 12.0382C9.99217 12.1667 9.81048 12.2383 9.62168 12.2388C9.43289 12.2392 9.25088 12.1684 9.11199 12.0405L4.21299 7.53299C4.04109 7.32188 3.9561 7.05319 3.97533 6.78162C3.99456 6.51006 4.11656 6.25602 4.31649 6.07124C4.51839 5.88657 4.77824 5.77787 5.0515 5.76377C5.32476 5.74968 5.59441 5.83107 5.81424 5.99399L9.62274 9.47249L13.3502 6.07124C13.5762 5.89658 13.8537 5.80182 14.1392 5.80182C14.4248 5.80182 14.7023 5.89658 14.9282 6.07124Z" fill="white"/>
</g>
<defs>
<clipPath id="clip0_279_1338">
<rect width="18" height="18" fill="white" transform="translate(0.59375)"/>
</clipPath>
</defs>
</svg>
