<svg width="25" height="25" viewBox="0 0 25 25" fill="none" xmlns="http://www.w3.org/2000/svg">
<path d="M20.3316 4.49978L17.7076 3.62478C14.0129 2.39322 10.0184 2.39322 6.32363 3.62478L3.69963 4.49978C3.50026 4.56618 3.32687 4.6937 3.20409 4.86423C3.08131 5.03477 3.01537 5.23964 3.01563 5.44978V11.5508C3.01563 16.9708 8.89163 20.9288 11.1476 22.2488C11.4105 22.4041 11.7103 22.4861 12.0156 22.4861C12.321 22.4861 12.6207 22.4041 12.8836 22.2488C15.1396 20.9288 21.0156 16.9698 21.0156 11.5508V5.44878C21.0157 5.23881 20.9496 5.03416 20.8269 4.86383C20.7041 4.6935 20.5308 4.56613 20.3316 4.49978ZM19.0156 11.5508C19.0156 14.0058 17.3356 16.2908 15.2036 18.1448C14.314 18.9115 13.3654 19.607 12.3666 20.2248C12.3317 20.2464 12.2916 20.2583 12.2505 20.2591C12.2094 20.26 12.1689 20.2499 12.1331 20.2298C12.0972 20.2096 12.0674 20.1803 12.0468 20.1448C12.0261 20.1093 12.0154 20.0689 12.0156 20.0278V5.70078C12.0133 5.57028 12.0378 5.44068 12.0876 5.32005C12.1374 5.19942 12.2116 5.09032 12.3053 4.99954C12.3991 4.90876 12.5106 4.83823 12.6328 4.79234C12.7549 4.74645 12.8853 4.72618 13.0156 4.73278C14.3974 4.81968 15.7621 5.08522 17.0756 5.52278L18.3316 5.94278C18.5305 6.00902 18.7035 6.13608 18.8263 6.30602C18.949 6.47595 19.0153 6.68016 19.0156 6.88978V11.5508Z" fill="#0062E3"/>
</svg>
