<svg width="105" height="37" viewBox="0 0 105 37" fill="none" xmlns="http://www.w3.org/2000/svg">
<g clip-path="url(#clip0_279_1052)">
<path fill-rule="evenodd" clip-rule="evenodd" d="M36.3146 22.6259H35.8184L36.9061 21.0687L35.8868 19.5881H36.4018L37.1772 20.7504L37.9466 19.5881H38.4365L37.4172 21.0687L38.4862 22.6259H37.9755L37.1567 21.3765L36.3146 22.6259ZM39.1399 22.6259H38.6433L39.7311 21.0687L38.7118 19.5881H39.2267L40.0021 20.7504L40.7715 19.5881H41.2614L40.2421 21.0687L41.3112 22.6259H40.8005L39.9817 21.3765L39.1399 22.6259ZM41.9645 22.6259H41.4682L42.556 21.0687L41.5367 19.5881H42.0517L42.8271 20.7504L43.5965 19.5881H44.0864L43.0667 21.0687L44.1361 22.6259H43.6254L42.8066 21.3765L41.9645 22.6259Z" fill="black"/>
<path d="M47.3825 5.33179H11.0296C9.47019 5.33179 8.20605 6.59592 8.20605 8.15532V28.6259C8.20605 30.1853 9.47019 31.4494 11.0296 31.4494H47.3825C48.9419 31.4494 50.2061 30.1853 50.2061 28.6259V8.15532C50.2061 6.59592 48.9419 5.33179 47.3825 5.33179Z" stroke="#524C61" stroke-width="2.11765"/>
<path fill-rule="evenodd" clip-rule="evenodd" d="M8.20605 10.6259H50.2061V15.567H8.20605V10.6259Z" fill="#524C61"/>
<path d="M30.0881 18.3906H13.1469C11.9774 18.3906 11.0293 19.3387 11.0293 20.5083V21.2142C11.0293 22.3837 11.9774 23.3318 13.1469 23.3318H30.0881C31.2577 23.3318 32.2058 22.3837 32.2058 21.2142V20.5083C32.2058 19.3387 31.2577 18.3906 30.0881 18.3906Z" fill="#B2AEBD"/>
<path d="M46.3232 14.5083L78.6174 1.97888M47.0291 27.5671L77.5585 35.1554" stroke="#524C61" stroke-width="1.05882" stroke-linecap="round" stroke-linejoin="round" stroke-dasharray="0.71 2.47"/>
<path d="M79.8529 34.9788C89.0143 34.9788 96.4411 27.552 96.4411 18.3906C96.4411 9.22917 89.0143 1.80237 79.8529 1.80237C70.6915 1.80237 63.2646 9.22917 63.2646 18.3906C63.2646 27.552 70.6915 34.9788 79.8529 34.9788Z" stroke="#524C61" stroke-width="2.82353"/>
<path fill-rule="evenodd" clip-rule="evenodd" d="M68.2969 22.9788L70.9016 18.8671V18.8215L68.3142 14.7729H70.333L72.073 17.7299H72.1189L73.8758 14.7729H75.7923L73.1082 18.8558V18.8957L75.7588 22.9788H73.8024L72.0052 20.1069H71.9597L70.1509 22.9788H68.2969ZM76.2815 22.9788L78.8862 18.8671V18.8215L76.2988 14.7729H78.3176L80.0576 17.7299H80.1035L81.8604 14.7729H83.7769L81.0928 18.8561V18.896L83.743 22.9788H81.7866L79.9895 20.1069H79.9439L78.1355 22.9788H76.2815ZM84.2661 22.9788L86.8708 18.8671V18.8215L84.2833 14.7729H86.3022L88.0422 17.7299H88.0881L89.8453 14.7729H91.7618L89.0773 18.8561V18.896L91.7276 22.9788H89.7712L87.9741 20.1069H87.9285L86.1201 22.9788H84.2661Z" fill="black"/>
<path d="M47.2057 27.7082C50.8898 27.7082 53.8763 24.7217 53.8763 21.0377C53.8763 17.3536 50.8898 14.3671 47.2057 14.3671C43.5217 14.3671 40.5352 17.3536 40.5352 21.0377C40.5352 24.7217 43.5217 27.7082 47.2057 27.7082Z" fill="white" stroke="#524C61" stroke-width="1.12941"/>
<path fill-rule="evenodd" clip-rule="evenodd" d="M42.9648 22.6258L43.9121 21.1308V21.1142L42.9708 19.6417H43.705L44.3378 20.7171H44.3544L44.9932 19.6417H45.6903L44.714 21.1265V21.141L45.6779 22.6258H44.9667L44.3134 21.5815H44.2968L43.639 22.6258H42.9648ZM45.8685 22.6258L46.8154 21.1308V21.1142L45.8745 19.6417H46.6086L47.2414 20.7171H47.258L47.8968 19.6417H48.5939L47.618 21.1265V21.141L48.5815 22.6258H47.8704L47.2167 21.5815H47.2001L46.5426 22.6258H45.8685ZM48.7718 22.6258L49.7191 21.1308V21.1142L48.7781 19.6417H49.5123L50.1451 20.7171H50.1617L50.8005 19.6417H51.4976L50.5213 21.1265V21.141L51.4848 22.6258H50.7737L50.1204 21.5815H50.1038L49.4459 22.6258H48.7718Z" fill="black"/>
</g>
<defs>
<clipPath id="clip0_279_1052">
<rect width="90.7059" height="36" fill="white" transform="translate(7.14746 0.390625)"/>
</clipPath>
</defs>
</svg>
