<svg width="17" height="17" viewBox="0 0 17 17" fill="none" xmlns="http://www.w3.org/2000/svg">
<path d="M11.8219 5.68756H5.77261C5.59386 5.67575 5.41563 5.71724 5.26047 5.80678C5.10531 5.89631 4.9802 6.02986 4.90097 6.19053C4.82175 6.35119 4.79196 6.53175 4.8154 6.70935C4.83883 6.88695 4.91443 7.05361 5.03261 7.18823L7.93528 10.3682C8.02845 10.4667 8.14032 10.5457 8.26436 10.6005C8.3884 10.6552 8.52211 10.6847 8.65768 10.6872C8.79325 10.6897 8.92796 10.6651 9.05392 10.6149C9.17988 10.5647 9.29457 10.4899 9.39128 10.3949L12.5366 7.21489C12.6625 7.08305 12.7456 6.91625 12.775 6.73637C12.8045 6.55648 12.7789 6.3719 12.7016 6.2068C12.6244 6.0417 12.4991 5.90379 12.3421 5.81114C12.1851 5.71848 12.0038 5.67541 11.8219 5.68756Z" fill="#161616"/>
</svg>
