<svg width="16" height="16" viewBox="0 0 16 16" fill="none" xmlns="http://www.w3.org/2000/svg">
<path d="M13.026 5.50006H6.97671C6.79797 5.48825 6.61973 5.52974 6.46457 5.61928C6.30941 5.70881 6.1843 5.84236 6.10507 6.00303C6.02585 6.16369 5.99607 6.34425 6.0195 6.52185C6.04293 6.69945 6.11853 6.86611 6.23672 7.00073L9.13938 10.1807C9.23255 10.2792 9.34442 10.3582 9.46846 10.413C9.5925 10.4677 9.72621 10.4972 9.86178 10.4997C9.99735 10.5022 10.1321 10.4776 10.258 10.4274C10.384 10.3772 10.4987 10.3024 10.5954 10.2074L13.7407 7.02739C13.8666 6.89555 13.9497 6.72875 13.9791 6.54887C14.0086 6.36898 13.983 6.1844 13.9057 6.0193C13.8285 5.8542 13.7032 5.71629 13.5462 5.62364C13.3892 5.53098 13.2079 5.48791 13.026 5.50006Z" fill="#161616"/>
</svg>
