<svg width="17" height="16" viewBox="0 0 17 16" fill="none" xmlns="http://www.w3.org/2000/svg">
<g clip-path="url(#clip0_279_1008)">
<path d="M7.62663 5.5H1.5773C1.39855 5.48819 1.22032 5.52968 1.06516 5.61921C0.909998 5.70875 0.784887 5.8423 0.70566 6.00297C0.626433 6.16363 0.596651 6.34419 0.620085 6.52179C0.643518 6.69939 0.719113 6.86605 0.837301 7.00067L3.73997 10.1807C3.83313 10.2792 3.94501 10.3581 4.06905 10.4129C4.19309 10.4677 4.3268 10.4972 4.46237 10.4996C4.59794 10.5021 4.73264 10.4775 4.8586 10.4274C4.98457 10.3772 5.09926 10.3024 5.19597 10.2073L8.3413 7.02733C8.46716 6.89548 8.55027 6.72869 8.57971 6.54881C8.60916 6.36892 8.58358 6.18434 8.50633 6.01924C8.42908 5.85414 8.30376 5.71623 8.14678 5.62358C7.98981 5.53092 7.80851 5.48785 7.62663 5.5Z" fill="#161616"/>
</g>
<defs>
<clipPath id="clip0_279_1008">
<rect width="16" height="16" fill="white" transform="translate(0.601562)"/>
</clipPath>
</defs>
</svg>
