<svg width="40" height="24" viewBox="0 0 40 24" fill="none" xmlns="http://www.w3.org/2000/svg">
<g clip-path="url(#clip0_279_1026)">
<path fill-rule="evenodd" clip-rule="evenodd" d="M4 0.5C3.6717 0.5 3.34661 0.564664 3.04329 0.690301C2.73998 0.815938 2.46438 1.00009 2.23223 1.23223C1.76339 1.70107 1.5 2.33696 1.5 3V21C1.5 21.663 1.76339 22.2989 2.23223 22.7678C2.46438 22.9999 2.73998 23.1841 3.04329 23.3097C3.34661 23.4353 3.6717 23.5 4 23.5H36C36.663 23.5 37.2989 23.2366 37.7678 22.7678C38.2366 22.2989 38.5 21.663 38.5 21V3C38.5 2.6717 38.4353 2.34661 38.3097 2.04329C38.1841 1.73998 37.9999 1.46438 37.7678 1.23223C37.5356 1.00009 37.26 0.815938 36.9567 0.690301C36.6534 0.564664 36.3283 0.5 36 0.5H4Z" fill="white" stroke="#E6E4EB"/>
<path d="M17.1523 7.065H22.8263V16.959H17.1523V7.065Z" fill="#FF5F00"/>
<path d="M17.5132 11.997C17.5112 10.069 18.4252 8.24698 19.9932 7.05698C17.3332 5.03398 13.5102 5.32698 11.2152 7.73398C10.1106 8.87761 9.49316 10.4055 9.49316 11.9955C9.49316 13.5855 10.1106 15.1134 11.2152 16.257C13.5112 18.663 17.3322 18.957 19.9932 16.934C18.4272 15.734 17.5132 13.935 17.5132 11.997Z" fill="#EB001B"/>
<path d="M30.4922 11.997C30.4922 14.401 29.0742 16.594 26.8382 17.645C24.6022 18.696 21.9622 18.421 19.9922 16.933C21.5582 15.733 22.4722 13.923 22.4722 11.995C22.4722 10.067 21.5582 8.248 19.9922 7.057C21.9622 5.569 24.6022 5.295 26.8382 6.347C29.0742 7.399 30.4922 9.591 30.4922 11.995V11.998V11.997Z" fill="#F79E1B"/>
</g>
<defs>
<clipPath id="clip0_279_1026">
<rect width="38" height="24" fill="white" transform="translate(1)"/>
</clipPath>
</defs>
</svg>
