<svg width="557" height="49" viewBox="0 0 557 49" fill="none" xmlns="http://www.w3.org/2000/svg">
<rect x="0.5" y="0.6875" width="555.797" height="47" rx="3.5" fill="white"/>
<rect x="0.5" y="0.6875" width="555.797" height="47" rx="3.5" stroke="#C2C9CD"/>
<path d="M534.822 21.6876H528.773C528.594 21.6758 528.416 21.7172 528.26 21.8068C528.105 21.8963 527.98 22.0299 527.901 22.1905C527.822 22.3512 527.792 22.5318 527.815 22.7094C527.839 22.887 527.914 23.0536 528.033 23.1882L530.935 26.3682C531.028 26.4667 531.14 26.5457 531.264 26.6005C531.388 26.6552 531.522 26.6847 531.658 26.6872C531.793 26.6897 531.928 26.6651 532.054 26.6149C532.18 26.5647 532.295 26.4899 532.391 26.3949L535.537 23.2149C535.662 23.083 535.746 22.9163 535.775 22.7364C535.804 22.5565 535.779 22.3719 535.702 22.2068C535.624 22.0417 535.499 21.9038 535.342 21.8111C535.185 21.7185 535.004 21.6754 534.822 21.6876Z" fill="#161616"/>
</svg>
