<svg width="17" height="17" viewBox="0 0 17 17" fill="none" xmlns="http://www.w3.org/2000/svg">
<g clip-path="url(#clip0_279_1402)">
<rect width="16" height="16" transform="translate(0.640625 0.984375)" fill="white"/>
<path d="M5.86996 16.9844H6.53529C6.77663 16.9844 7.00062 16.8604 7.12729 16.655L11.2393 10.051L15.55 10.0257C16.1406 10.039 16.626 9.57104 16.6406 8.98438C16.6246 8.39771 16.1406 7.92838 15.55 7.94304L11.2393 7.91771L7.12863 1.31238C7.00063 1.10838 6.77663 0.984375 6.53529 0.984375H5.86996C5.38063 0.984375 5.04329 1.47371 5.21796 1.93104L7.50596 7.91771H3.70196L2.81663 6.14437C2.70463 5.92171 2.48329 5.77504 2.23529 5.76038L0.640625 5.66304L2.10329 8.98438L0.640625 12.3057L2.23529 12.2084C2.48329 12.1937 2.70463 12.047 2.81663 11.8244L3.70196 10.051H7.50596L5.21796 16.0377C5.04329 16.495 5.38063 16.9844 5.86996 16.9844Z" fill="#898294"/>
</g>
<defs>
<clipPath id="clip0_279_1402">
<rect width="16" height="16" fill="white" transform="translate(0.640625 0.984375)"/>
</clipPath>
</defs>
</svg>
