<svg width="16" height="16" viewBox="0 0 16 16" fill="none" xmlns="http://www.w3.org/2000/svg">
<g clip-path="url(#clip0_279_962)">
<path d="M16 9.50002V14C16 14.1326 15.9473 14.2598 15.8536 14.3536C15.7598 14.4473 15.6326 14.5 15.5 14.5H15.3087C15.2159 14.4999 15.125 14.4739 15.0461 14.4251C14.9672 14.3762 14.9034 14.3064 14.862 14.2233L14 12.5H2L1.138 14.2233C1.0965 14.3065 1.03267 14.3764 0.953654 14.4253C0.87464 14.4741 0.783573 14.5 0.690668 14.5H0.500002C0.367393 14.5 0.240216 14.4473 0.146448 14.3536C0.0526801 14.2598 1.65378e-06 14.1326 1.65378e-06 14V9.50002C-0.000657608 8.9879 0.195812 8.49517 0.548668 8.12402C0.812564 7.8818 0.974004 7.54795 1 7.19068V3.65068C0.992419 3.49137 1.03153 3.33332 1.11254 3.19594C1.19355 3.05855 1.31293 2.94782 1.456 2.87735L2.78334 2.33668C5.52067 1.22135 10.4793 1.22135 13.2167 2.33668L14.544 2.87868C14.6872 2.94902 14.8067 3.05972 14.8877 3.19714C14.9687 3.33455 15.0078 3.49268 15 3.65202L14.998 7.18868C15.0244 7.54597 15.1861 7.87974 15.45 8.12202C15.8037 8.49354 16.0007 8.98705 16 9.50002ZM4.5 7.50002H6.5C6.63261 7.50002 6.75979 7.44734 6.85356 7.35357C6.94732 7.2598 7 7.13263 7 7.00002C7 6.86741 6.94732 6.74023 6.85356 6.64646C6.75979 6.5527 6.63261 6.50002 6.5 6.50002H5.708C5.89331 6.07602 6.19259 5.71174 6.57257 5.44768C6.95255 5.18362 7.39832 5.03013 7.86032 5.00429C8.32232 4.97845 8.78243 5.08127 9.18948 5.30131C9.59653 5.52136 9.93457 5.85 10.166 6.25068C10.2325 6.36543 10.3418 6.44907 10.47 6.48321C10.5981 6.51734 10.7346 6.49916 10.8493 6.43268C10.9641 6.3662 11.0477 6.25686 11.0819 6.12871C11.116 6.00056 11.0978 5.8641 11.0313 5.74935C10.7267 5.22186 10.2896 4.78299 9.76343 4.47613C9.23721 4.16927 8.64003 4.00503 8.0309 3.99964C7.42178 3.99426 6.82179 4.14791 6.29023 4.44542C5.75867 4.74293 5.31394 5.17399 5 5.69602V5.00002C5 4.86741 4.94732 4.74023 4.85356 4.64646C4.75979 4.55269 4.63261 4.50002 4.5 4.50002C4.36739 4.50002 4.24022 4.55269 4.14645 4.64646C4.05268 4.74023 4 4.86741 4 5.00002V7.00002C4 7.13263 4.05268 7.2598 4.14645 7.35357C4.24022 7.44734 4.36739 7.50002 4.5 7.50002ZM12 8.00002C12 7.86741 11.9473 7.74023 11.8536 7.64646C11.7598 7.5527 11.6326 7.50002 11.5 7.50002H9.5C9.36739 7.50002 9.24022 7.5527 9.14645 7.64646C9.05268 7.74023 9 7.86741 9 8.00002C9 8.13263 9.05268 8.2598 9.14645 8.35357C9.24022 8.44734 9.36739 8.50002 9.5 8.50002H10.292C10.1069 8.9242 9.80767 9.28869 9.42768 9.55291C9.04769 9.81713 8.60183 9.97071 8.13973 9.99655C7.67763 10.0224 7.21742 9.91949 6.81034 9.6993C6.40326 9.4791 6.06527 9.15025 5.834 8.74935C5.80108 8.69253 5.7573 8.64275 5.70514 8.60286C5.65299 8.56296 5.59348 8.53373 5.53003 8.51683C5.46658 8.49993 5.40041 8.49569 5.33532 8.50436C5.27023 8.51303 5.20749 8.53443 5.15067 8.56735C5.09385 8.60027 5.04407 8.64406 5.00418 8.69621C4.96428 8.74837 4.93505 8.80787 4.91815 8.87132C4.90125 8.93478 4.89701 9.00094 4.90568 9.06603C4.91435 9.13112 4.93575 9.19387 4.96867 9.25068C5.27339 9.77814 5.71047 10.217 6.23672 10.5238C6.76296 10.8306 7.36016 10.9947 7.96929 11.0001C8.57842 11.0054 9.17839 10.8517 9.70992 10.5541C10.2414 10.2565 10.6861 9.82541 11 9.30335V10C11 10.1326 11.0527 10.2598 11.1464 10.3536C11.2402 10.4473 11.3674 10.5 11.5 10.5C11.6326 10.5 11.7598 10.4473 11.8536 10.3536C11.9473 10.2598 12 10.1326 12 10V8.00002Z" fill="#545860"/>
</g>
<defs>
<clipPath id="clip0_279_962">
<rect width="16" height="16" fill="white"/>
</clipPath>
</defs>
</svg>
