<svg width="17" height="17" viewBox="0 0 17 17" fill="none" xmlns="http://www.w3.org/2000/svg">
<g clip-path="url(#clip0_279_1380)">
<rect width="16" height="16" transform="translate(0.640625 0.390625)" fill="white"/>
<path d="M5.86996 16.3906H6.53529C6.77663 16.3906 7.00062 16.2666 7.12729 16.0613L11.2393 9.45729L15.55 9.43196C16.1406 9.44529 16.626 8.97729 16.6406 8.39062C16.6246 7.80396 16.1406 7.33463 15.55 7.34929L11.2393 7.32396L7.12863 0.718625C7.00063 0.514625 6.77663 0.390625 6.53529 0.390625H5.86996C5.38063 0.390625 5.04329 0.879958 5.21796 1.33729L7.50596 7.32396H3.70196L2.81663 5.55062C2.70463 5.32796 2.48329 5.18129 2.23529 5.16663L0.640625 5.06929L2.10329 8.39062L0.640625 11.712L2.23529 11.6146C2.48329 11.6 2.70463 11.4533 2.81663 11.2306L3.70196 9.45729H7.50596L5.21796 15.444C5.04329 15.9013 5.38063 16.3906 5.86996 16.3906Z" fill="#898294"/>
</g>
<defs>
<clipPath id="clip0_279_1380">
<rect width="16" height="16" fill="white" transform="translate(0.640625 0.390625)"/>
</clipPath>
</defs>
</svg>
