<svg width="17" height="16" viewBox="0 0 17 16" fill="none" xmlns="http://www.w3.org/2000/svg">
<g clip-path="url(#clip0_279_981)">
<path d="M8.79688 1C8.53166 1 8.2773 1.10536 8.08977 1.29289C7.90223 1.48043 7.79688 1.73478 7.79688 2V7H2.79688C2.53166 7 2.2773 7.10536 2.08977 7.29289C1.90223 7.48043 1.79688 7.73478 1.79688 8C1.79688 8.26522 1.90223 8.51957 2.08977 8.70711C2.2773 8.89464 2.53166 9 2.79688 9H7.79688V14C7.79688 14.2652 7.90223 14.5196 8.08977 14.7071C8.2773 14.8946 8.53166 15 8.79688 15C9.06209 15 9.31645 14.8946 9.50398 14.7071C9.69152 14.5196 9.79688 14.2652 9.79688 14V9H14.7969C15.0621 9 15.3164 8.89464 15.504 8.70711C15.6915 8.51957 15.7969 8.26522 15.7969 8C15.7969 7.73478 15.6915 7.48043 15.504 7.29289C15.3164 7.10536 15.0621 7 14.7969 7H9.79688V2C9.79688 1.73478 9.69152 1.48043 9.50398 1.29289C9.31645 1.10536 9.06209 1 8.79688 1Z" fill="#0062E3"/>
</g>
<defs>
<clipPath id="clip0_279_981">
<rect width="16" height="16" fill="white" transform="translate(0.796875)"/>
</clipPath>
</defs>
</svg>
