<svg width="17" height="17" viewBox="0 0 17 17" fill="none" xmlns="http://www.w3.org/2000/svg">
<g clip-path="url(#clip0_279_978)">
<path d="M8.29688 1.65625C6.91241 1.65625 5.55903 2.06679 4.40789 2.83596C3.25674 3.60513 2.35953 4.69838 1.82972 5.97747C1.29991 7.25655 1.16128 8.66402 1.43138 10.0219C1.70148 11.3797 2.36816 12.627 3.34713 13.606C4.3261 14.585 5.57338 15.2517 6.93125 15.5217C8.28911 15.7918 9.69658 15.6532 10.9757 15.1234C12.2547 14.5936 13.348 13.6964 14.1172 12.5452C14.8863 11.3941 15.2969 10.0407 15.2969 8.65625C15.2969 6.79973 14.5594 5.01926 13.2466 3.7065C11.9339 2.39375 10.1534 1.65625 8.29688 1.65625ZM8.29688 4.65625C8.4944 4.65625 8.68748 4.71482 8.85171 4.82456C9.01594 4.93429 9.14394 5.09026 9.21953 5.27274C9.29511 5.45523 9.31489 5.65602 9.27636 5.84975C9.23782 6.04347 9.14271 6.22142 9.00304 6.36108C8.86338 6.50075 8.68543 6.59586 8.49171 6.63439C8.29799 6.67293 8.09719 6.65315 7.91471 6.57756C7.73222 6.50198 7.57625 6.37398 7.46652 6.20975C7.35678 6.04552 7.29821 5.85243 7.29821 5.65492C7.29821 5.39005 7.40343 5.13604 7.59071 4.94875C7.778 4.76147 8.03202 4.65625 8.29688 4.65625ZM9.29221 11.7736C9.26402 12.0172 9.14728 12.242 8.96419 12.4052C8.7811 12.5683 8.54443 12.6586 8.29918 12.6586C8.05392 12.6587 7.81719 12.5687 7.63399 12.4056C7.45079 12.2426 7.3339 12.0179 7.30554 11.7743L7.29888 11.6576L7.29688 8.65692L7.30354 8.53958C7.33182 8.29596 7.44863 8.07123 7.63178 7.90811C7.81492 7.74499 8.05162 7.65486 8.29688 7.65486C8.54213 7.65486 8.77884 7.74499 8.96198 7.90811C9.14513 8.07123 9.26194 8.29596 9.29021 8.53958L9.29688 8.65625L9.29888 11.6569L9.29221 11.7736Z" fill="#161616"/>
</g>
<defs>
<clipPath id="clip0_279_978">
<rect width="16" height="16" fill="white" transform="translate(0.296875 0.65625)"/>
</clipPath>
</defs>
</svg>
