<svg width="24" height="25" viewBox="0 0 24 25" fill="none" xmlns="http://www.w3.org/2000/svg">
<g clip-path="url(#clip0_279_1237)">
<path d="M21.9001 12.1925H21.8001C21.5348 12.1925 21.2805 12.0871 21.0929 11.8996C20.9054 11.7121 20.8001 11.4577 20.8001 11.1925L20.7971 8.8175H20.8001V6.5815C20.8146 6.33607 20.7595 6.09153 20.6412 5.87604C20.5228 5.66055 20.346 5.48288 20.1311 5.3635L18.1841 4.5105C16.2382 3.6418 14.1311 3.19283 12.0001 3.19283C9.86905 3.19283 7.76196 3.6418 5.81606 4.5105L3.86906 5.3635C3.65389 5.48312 3.47693 5.66113 3.35856 5.87699C3.24019 6.09284 3.18525 6.33776 3.20006 6.5835V11.1935C3.20006 11.4587 3.0947 11.7131 2.90716 11.9006C2.71963 12.0881 2.46527 12.1935 2.20006 12.1935H2.10006C1.80521 12.1969 1.52378 12.3172 1.31754 12.5279C1.11131 12.7387 0.997121 13.0226 1.00006 13.3175V20.3725C1.00358 20.5757 1.08241 20.7703 1.22126 20.9186C1.36011 21.067 1.5491 21.1585 1.75159 21.1754C1.95407 21.1924 2.15563 21.1335 2.3172 21.0103C2.47877 20.8871 2.58883 20.7083 2.62606 20.5085L3.20006 17.8185H20.8001L21.3751 20.5085C21.4112 20.7092 21.5209 20.8892 21.6827 21.0132C21.8445 21.1373 22.0467 21.1966 22.2499 21.1795C22.4531 21.1623 22.6426 21.07 22.7813 20.9206C22.92 20.7712 22.998 20.5754 23.0001 20.3715V13.3175C23.0033 13.0225 22.8892 12.7383 22.6829 12.5273C22.4767 12.3163 22.1951 12.1959 21.9001 12.1925ZM6.00006 10.1925V7.1925C6.00006 6.92728 6.10541 6.67292 6.29295 6.48539C6.48048 6.29785 6.73484 6.1925 7.00006 6.1925C7.26527 6.1925 7.51963 6.29785 7.70716 6.48539C7.8947 6.67292 8.00006 6.92728 8.00006 7.1925V8.0325C8.42367 7.51336 8.9473 7.08467 9.53984 6.77188C10.1324 6.45909 10.7817 6.26859 11.4494 6.21169C12.117 6.15478 12.7892 6.23265 13.4261 6.44065C14.0631 6.64865 14.6517 6.98254 15.1571 7.4225C15.2597 7.50768 15.3442 7.61252 15.4057 7.73087C15.4672 7.84921 15.5044 7.97865 15.5151 8.11159C15.5258 8.24452 15.5098 8.37825 15.4681 8.50492C15.4264 8.63158 15.3597 8.74862 15.2721 8.84914C15.1844 8.94965 15.0776 9.03163 14.9578 9.09023C14.838 9.14883 14.7076 9.18288 14.5745 9.19036C14.4413 9.19785 14.308 9.17863 14.1824 9.13383C14.0568 9.08903 13.9414 9.01955 13.8431 8.92949C13.2482 8.41195 12.4735 8.14939 11.6866 8.19861C10.8997 8.24783 10.1638 8.60487 9.63805 9.1925H10.0001C10.2653 9.1925 10.5196 9.29785 10.7072 9.48539C10.8947 9.67292 11.0001 9.92728 11.0001 10.1925C11.0001 10.4577 10.8947 10.7121 10.7072 10.8996C10.5196 11.0871 10.2653 11.1925 10.0001 11.1925H7.00006C6.73484 11.1925 6.48048 11.0871 6.29295 10.8996C6.10541 10.7121 6.00006 10.4577 6.00006 10.1925ZM18.0001 14.1925C18.0001 14.4577 17.8947 14.7121 17.7072 14.8996C17.5196 15.0871 17.2653 15.1925 17.0001 15.1925C16.7348 15.1925 16.4805 15.0871 16.2929 14.8996C16.1054 14.7121 16.0001 14.4577 16.0001 14.1925V14.0175C15.5999 14.6018 15.0802 15.0945 14.4753 15.4629C13.8704 15.8313 13.1942 16.067 12.4914 16.1545C11.7886 16.2419 11.0752 16.1791 10.3985 15.9702C9.72183 15.7612 9.09722 15.4109 8.56606 14.9425C8.36714 14.7669 8.24612 14.5195 8.22962 14.2547C8.21312 13.9899 8.30248 13.7294 8.47806 13.5305C8.65363 13.3316 8.90103 13.2106 9.16583 13.1941C9.43063 13.1776 9.69114 13.2669 9.89006 13.4425C10.2583 13.7672 10.7006 13.9966 11.1781 14.1106C11.6557 14.2246 12.1539 14.2197 12.6291 14.0963C13.1043 13.9729 13.542 13.7348 13.9037 13.4029C14.2655 13.071 14.5403 12.6553 14.7041 12.1925H14.0001C13.7348 12.1925 13.4805 12.0871 13.2929 11.8996C13.1054 11.7121 13.0001 11.4577 13.0001 11.1925C13.0001 10.9273 13.1054 10.6729 13.2929 10.4854C13.4805 10.2979 13.7348 10.1925 14.0001 10.1925H17.0001C17.2653 10.1925 17.5196 10.2979 17.7072 10.4854C17.8947 10.6729 18.0001 10.9273 18.0001 11.1925V14.1925Z" fill="#161616"/>
</g>
<defs>
<clipPath id="clip0_279_1237">
<rect width="24" height="24" fill="white" transform="translate(0 0.1875)"/>
</clipPath>
</defs>
</svg>
