<svg width="40" height="24" viewBox="0 0 40 24" fill="none" xmlns="http://www.w3.org/2000/svg">
<g clip-path="url(#clip0_279_1022)">
<path d="M35.5 0.5H4.5C2.84315 0.5 1.5 1.84315 1.5 3.5V20.5C1.5 22.1569 2.84315 23.5 4.5 23.5H35.5C37.1569 23.5 38.5 22.1569 38.5 20.5V3.5C38.5 1.84315 37.1569 0.5 35.5 0.5Z" fill="white" stroke="#E6E4EB"/>
<path d="M19.3616 7.73L17.7586 16.282H15.8186L17.4236 7.732H19.3616V7.73ZM27.5216 13.25L28.5436 10.05L29.1306 13.25H27.5216ZM29.6856 16.28H31.4776L29.9136 7.73H28.2566C27.8866 7.73 27.5706 7.977 27.4316 8.357L24.5236 16.281H26.5576L26.9636 15.004H29.4516L29.6856 16.28ZM24.6236 13.48C24.6336 11.22 21.8876 11.097 21.9066 10.08C21.9126 9.772 22.1686 9.446 22.7286 9.362C23.0066 9.32 23.7716 9.289 24.6406 9.744L24.9806 7.93C24.4072 7.6841 23.7904 7.55557 23.1666 7.552C21.2506 7.552 19.9006 8.715 19.8896 10.382C19.8796 11.612 20.8526 12.299 21.5876 12.709C22.3426 13.129 22.5956 13.397 22.5936 13.773C22.5876 14.345 21.9896 14.599 21.4336 14.607C20.4586 14.627 19.8916 14.307 19.4416 14.07L19.0996 15.96C19.5526 16.197 20.3876 16.402 21.2566 16.414C23.2936 16.414 24.6266 15.264 24.6306 13.489L24.6236 13.48ZM16.5896 7.73L13.4496 16.28H11.3996L9.85256 9.455C9.75756 9.035 9.67556 8.882 9.39056 8.705C8.92456 8.415 8.15556 8.145 7.47656 7.977L7.52356 7.73H10.8236C11.2436 7.73 11.6216 8.048 11.7176 8.602L12.5336 13.55L14.5516 7.73H16.5896Z" fill="#10347E"/>
</g>
<defs>
<clipPath id="clip0_279_1022">
<rect width="38" height="24" fill="white" transform="translate(1)"/>
</clipPath>
</defs>
</svg>
